<?xml version="1.0" encoding="utf-8"?>
<!-- Generator: Adobe Illustrator 16.0.0, SVG Export Plug-In . SVG Version: 6.00 Build 0)  -->
<!DOCTYPE svg PUBLIC "-//W3C//DTD SVG 1.1//EN" "http://www.w3.org/Graphics/SVG/1.1/DTD/svg11.dtd">
<svg version="1.1" id="Layer_1" xmlns="http://www.w3.org/2000/svg" xmlns:xlink="http://www.w3.org/1999/xlink" x="0px" y="0px"
	 width="144px" height="144px" viewBox="0 0 144 144" enable-background="new 0 0 144 144" xml:space="preserve">
<g>
	<path fill="#F1F2F2" d="M60.493,81.748c-3.146,0-5.707,2.98-5.707,6.656c0,3.654,2.561,6.654,5.707,6.654
		c3.14,0,5.699-3,5.699-6.654C66.191,84.729,63.634,81.748,60.493,81.748z M60.493,92.524c-1.746,0-3.173-1.853-3.173-4.12
		c0-2.287,1.427-4.121,3.173-4.121c1.743,0,3.164,1.834,3.164,4.121C63.657,90.672,62.232,92.524,60.493,92.524z"/>
	<path fill="#F1F2F2" d="M73.27,81.748c-0.697,0-1.27,0.563-1.27,1.259v10.776c0,0.695,0.572,1.277,1.27,1.277
		c0.698,0,1.266-0.58,1.266-1.277V83.006C74.535,82.311,73.968,81.748,73.27,81.748z"/>
	<path fill="#F1F2F2" d="M86.047,81.748c-3.14,0-5.697,2.98-5.697,6.656c0,3.654,2.558,6.654,5.697,6.654
		c3.144,0,5.705-3,5.705-6.654C91.752,84.729,89.191,81.748,86.047,81.748z M86.047,92.524c-1.752,0-3.164-1.853-3.164-4.12
		c0-2.287,1.415-4.121,3.164-4.121c1.753,0,3.171,1.834,3.171,4.121C89.218,90.672,87.801,92.524,86.047,92.524z"/>
	<path fill="#F1F2F2" d="M98.821,95.059c0.712,0,1.274-0.58,1.274-1.276V83.006c0-0.695-0.563-1.258-1.274-1.258
		c-0.699,0-1.261,0.563-1.261,1.258v10.776C97.563,94.479,98.12,95.059,98.821,95.059z"/>
	<path fill="#F1F2F2" d="M107.178,81.748c-0.715,0-1.276,0.563-1.276,1.259v10.776c0,0.695,0.562,1.277,1.276,1.277
		c0.697,0,1.258-0.58,1.258-1.277V83.006C108.436,82.311,107.873,81.748,107.178,81.748z"/>
	<path fill="#F1F2F2" d="M115.527,81.748c-0.715,0-1.277,0.563-1.277,1.259v10.776c0,0.695,0.563,1.277,1.277,1.277
		c0.695,0,1.258-0.58,1.258-1.277V83.006C116.785,82.311,116.223,81.748,115.527,81.748z"/>
	<path fill="#F1F2F2" d="M128.299,95.059c3.141,0,5.701-3,5.701-6.654c0-3.676-2.561-6.656-5.701-6.656
		c-3.145,0-5.708,2.98-5.708,6.656C122.591,92.059,125.154,95.059,128.299,95.059z M128.299,84.283c1.752,0,3.168,1.834,3.168,4.121
		c0,2.268-1.415,4.12-3.168,4.12c-1.746,0-3.174-1.853-3.174-4.12C125.125,86.117,126.553,84.283,128.299,84.283z"/>
	<path fill="#F1F2F2" d="M128.299,100.862c-3.145,0-5.708,2.981-5.708,6.655c0,3.655,2.563,6.65,5.708,6.65
		c3.141,0,5.701-2.995,5.701-6.65C134,103.842,131.439,100.862,128.299,100.862z M128.299,111.633c-1.746,0-3.174-1.853-3.174-4.114
		c0-2.278,1.428-4.121,3.174-4.121c1.752,0,3.168,1.843,3.168,4.121C131.467,109.782,130.051,111.633,128.299,111.633z"/>
	<path fill="#F1F2F2" d="M115.527,100.862c-0.715,0-1.277,0.562-1.277,1.257v10.772c0,0.703,0.563,1.277,1.277,1.277
		c0.695,0,1.258-0.574,1.258-1.277v-10.772C116.785,101.424,116.223,100.862,115.527,100.862z"/>
	<path fill="#F1F2F2" d="M102.734,100.862c-3.141,0-5.701,2.981-5.701,6.655c0,3.655,2.561,6.65,5.701,6.65
		c3.14,0,5.701-2.995,5.701-6.65C108.436,103.842,105.875,100.862,102.734,100.862z M102.734,111.633
		c-1.733,0-3.168-1.853-3.168-4.114c0-2.278,1.435-4.121,3.168-4.121c1.752,0,3.167,1.843,3.167,4.121
		C105.901,109.782,104.486,111.633,102.734,111.633z"/>
	<path fill="#F1F2F2" d="M91.227,112.891v-10.771c0-0.696-0.562-1.258-1.258-1.258c-0.713,0-1.277,0.562-1.277,1.258v10.771
		c0,0.704,0.564,1.277,1.277,1.277C90.665,114.168,91.227,113.595,91.227,112.891z"/>
	<path fill="#F1F2F2" d="M81.626,114.168c0.696,0,1.259-0.573,1.259-1.277v-10.771c0-0.696-0.563-1.258-1.259-1.258
		c-0.714,0-1.276,0.562-1.276,1.258v10.771C80.35,113.595,80.908,114.168,81.626,114.168z"/>
	<path fill="#F1F2F2" d="M73.27,100.862c-0.697,0-1.27,0.562-1.27,1.257v10.772c0,0.703,0.572,1.277,1.27,1.277
		c0.698,0,1.266-0.574,1.266-1.277v-10.772C74.535,101.424,73.968,100.862,73.27,100.862z"/>
	<path fill="#F1F2F2" d="M60.493,100.862c-3.146,0-5.707,2.981-5.707,6.655c0,3.655,2.561,6.65,5.707,6.65
		c3.14,0,5.699-2.995,5.699-6.65C66.191,103.842,63.634,100.862,60.493,100.862z M60.493,111.633c-1.746,0-3.173-1.853-3.173-4.114
		c0-2.278,1.427-4.121,3.173-4.121c1.743,0,3.164,1.843,3.164,4.121C63.657,109.782,62.232,111.633,60.493,111.633z"/>
	<path fill="#F1F2F2" d="M60.493,119.982c-3.146,0-5.707,2.977-5.707,6.648c0,3.675,2.561,6.656,5.707,6.656
		c3.14,0,5.699-2.981,5.699-6.656C66.191,122.959,63.634,119.982,60.493,119.982z M60.493,130.752c-1.746,0-3.173-1.853-3.173-4.121
		c0-2.264,1.427-4.113,3.173-4.113c1.743,0,3.164,1.854,3.164,4.113C63.657,128.902,62.232,130.752,60.493,130.752z"/>
	<path fill="#F1F2F2" d="M73.27,119.982c-0.697,0-1.27,0.562-1.27,1.258v10.771c0,0.715,0.572,1.277,1.27,1.277
		c0.698,0,1.266-0.563,1.266-1.277V121.24C74.535,120.544,73.968,119.982,73.27,119.982z"/>
	<path fill="#F1F2F2" d="M86.047,119.982c-3.14,0-5.697,2.977-5.697,6.648c0,3.675,2.558,6.656,5.697,6.656
		c3.144,0,5.705-2.981,5.705-6.656C91.752,122.959,89.191,119.982,86.047,119.982z M86.047,130.752
		c-1.752,0-3.164-1.853-3.164-4.121c0-2.264,1.415-4.113,3.164-4.113c1.753,0,3.171,1.854,3.171,4.113
		C89.218,128.902,87.801,130.752,86.047,130.752z"/>
	<path fill="#F1F2F2" d="M98.821,119.982c-0.699,0-1.261,0.562-1.261,1.258v10.771c0,0.715,0.562,1.277,1.261,1.277
		c0.712,0,1.274-0.563,1.274-1.277V121.24C100.096,120.544,99.533,119.982,98.821,119.982z"/>
	<path fill="#F1F2F2" d="M107.178,119.982c-0.715,0-1.276,0.562-1.276,1.258v10.771c0,0.715,0.562,1.277,1.276,1.277
		c0.697,0,1.258-0.563,1.258-1.277V121.24C108.436,120.544,107.873,119.982,107.178,119.982z"/>
	<path fill="#F1F2F2" d="M115.527,119.982c-0.715,0-1.277,0.562-1.277,1.258v10.771c0,0.715,0.563,1.277,1.277,1.277
		c0.695,0,1.258-0.563,1.258-1.277V121.24C116.785,120.544,116.223,119.982,115.527,119.982z"/>
	<path fill="#F1F2F2" d="M128.299,119.982c-3.145,0-5.708,2.977-5.708,6.648c0,3.675,2.563,6.656,5.708,6.656
		c3.141,0,5.701-2.981,5.701-6.656C134,122.959,131.439,119.982,128.299,119.982z M128.299,130.752
		c-1.746,0-3.174-1.853-3.174-4.121c0-2.264,1.428-4.113,3.174-4.113c1.752,0,3.168,1.854,3.168,4.113
		C131.467,128.902,130.051,130.752,128.299,130.752z"/>
	<path fill="#F1F2F2" d="M11.111,12.994c0,0.489,0.067,0.972,0.142,1.517c0.061,0.439,0.127,0.887,0.127,1.328
		c0,0.366,0,0.495-0.621,0.495h-0.756v2.396h0.756c0.621,0,0.621,0.201,0.621,0.502c0,0.424-0.064,0.847-0.127,1.268
		c-0.072,0.492-0.142,1.012-0.142,1.511c0,1.963,1.175,3.096,3.228,3.096h1.122v-2.464H14.39c-0.381,0-0.585-0.028-0.585-0.722
		c0-0.368,0.049-0.719,0.11-1.111c0.072-0.44,0.127-0.91,0.127-1.397c0.012-0.784-0.198-1.424-0.591-1.882
		c0.345-0.398,0.606-0.984,0.591-1.866c0-0.495-0.055-0.945-0.13-1.417c-0.061-0.369-0.11-0.734-0.11-1.083
		c0-0.679,0.167-0.711,0.588-0.711h1.071V10h-1.122C12.32,10,11.111,11.12,11.111,12.994z"/>
	<path fill="#F1F2F2" d="M14.081,65.431c0-0.433,0.067-0.877,0.133-1.376c0.07-0.496,0.137-0.971,0.137-1.469
		c0-1.875-1.216-2.988-3.242-2.988H10v2.45h1.056c0.449,0.009,0.6,0.067,0.6,0.715c0,0.263-0.047,0.545-0.078,0.82l-0.034,0.266
		c-0.073,0.461-0.146,0.914-0.146,1.412c0,0.882,0.264,1.468,0.604,1.865c-0.396,0.458-0.604,1.092-0.604,1.873
		c0,0.504,0.073,0.974,0.146,1.384L11.58,70.7c0.032,0.279,0.075,0.542,0.075,0.817c0,0.644-0.177,0.713-0.604,0.723H10v2.46h1.12
		c2.018,0,3.225-1.157,3.225-3.095c0-0.497-0.07-1.014-0.137-1.513c-0.063-0.424-0.132-0.848-0.132-1.272
		c0-0.302,0-0.493,0.618-0.493h0.766v-2.393h-0.767C14.081,65.931,14.081,65.794,14.081,65.431z"/>
	<path fill="#F1F2F2" d="M16.948,29.405h47.065c0.696,0,1.267-0.566,1.267-1.271c0-0.696-0.572-1.267-1.267-1.267H16.948
		c-0.696,0-1.267,0.571-1.267,1.267C15.681,28.839,16.249,29.405,16.948,29.405z"/>
	<path fill="#F1F2F2" d="M16.948,36.51h34.633c0.706,0,1.267-0.565,1.267-1.267c0-0.696-0.562-1.268-1.267-1.268H16.948
		c-0.696,0-1.267,0.572-1.267,1.268C15.681,35.944,16.249,36.51,16.948,36.51z"/>
	<path fill="#F1F2F2" d="M69.518,33.975H56.024c-0.705,0-1.268,0.572-1.268,1.268c0,0.702,0.563,1.267,1.268,1.267h13.494
		c0.696,0,1.268-0.565,1.268-1.267C70.785,34.546,70.214,33.975,69.518,33.975z"/>
	<path fill="#F1F2F2" d="M16.948,43.618h26.637c0.706,0,1.268-0.572,1.268-1.267c0-0.706-0.563-1.268-1.268-1.268H16.948
		c-0.696,0-1.267,0.563-1.267,1.268C15.681,43.046,16.249,43.618,16.948,43.618z"/>
	<path fill="#F1F2F2" d="M46.938,42.35c0,0.696,0.571,1.267,1.267,1.267h10.127c0.696,0,1.267-0.572,1.267-1.267
		c0-0.706-0.572-1.268-1.267-1.268H48.205C47.507,41.083,46.938,41.645,46.938,42.35z"/>
	<path fill="#F1F2F2" d="M51.581,48.182H16.948c-0.696,0-1.267,0.572-1.267,1.268c0,0.706,0.572,1.268,1.267,1.268h34.633
		c0.706,0,1.267-0.563,1.267-1.268C52.848,48.753,52.287,48.182,51.581,48.182z"/>
	<path fill="#F1F2F2" d="M29.045,56.554c0-0.696-0.563-1.267-1.268-1.267H16.948c-0.696,0-1.267,0.572-1.267,1.267
		c0,0.703,0.572,1.268,1.267,1.268h10.829C28.485,57.822,29.045,57.257,29.045,56.554z"/>
	<path fill="#F1F2F2" d="M43.026,107.826c0-0.044-0.023-0.081-0.029-0.133c-0.009-0.078-0.026-0.153-0.049-0.24
		c-0.012-0.033-0.008-0.069-0.026-0.11c-0.014-0.045-0.055-0.075-0.075-0.124c-0.026-0.041-0.032-0.083-0.06-0.126l-4.444-6.249
		c-0.403-0.569-1.192-0.695-1.769-0.307c-0.568,0.413-0.702,1.195-0.299,1.78l2.993,4.201c-5.502-0.196-11.223-1.243-15.052-5.397
		c-3.45-3.76-4.86-9.711-4.176-17.68c0.057-0.713-0.452-1.33-1.158-1.379c-0.709-0.066-1.31,0.455-1.368,1.145
		c-0.746,8.713,0.877,15.313,4.831,19.611c4.337,4.725,10.728,5.936,16.447,6.2l-2.389,2.433c-0.49,0.5-0.485,1.297,0.018,1.789
		c0.247,0.244,0.562,0.366,0.887,0.366c0.331,0,0.653-0.128,0.901-0.374l4.44-4.5c0,0,0,0,0.003,0l0.006-0.008
		c0.02-0.033,0.031-0.07,0.058-0.094c0.009-0.006,0.011-0.02,0.017-0.031c0.055-0.071,0.096-0.123,0.127-0.199
		c0.021-0.021,0.049-0.051,0.057-0.092c0.023-0.042,0.021-0.096,0.039-0.151c0.013-0.069,0.034-0.138,0.04-0.231
		c0.003-0.021,0.023-0.055,0.023-0.1C43.028,107.83,43.026,107.826,43.026,107.826z"/>
</g>
</svg>
