<?xml version="1.0" encoding="utf-8"?>
<!-- Generator: Adobe Illustrator 16.0.0, SVG Export Plug-In . SVG Version: 6.00 Build 0)  -->
<svg version="1.2" baseProfile="tiny" id="Layer_1" xmlns="http://www.w3.org/2000/svg" xmlns:xlink="http://www.w3.org/1999/xlink"
	 x="0px" y="0px" width="144px" height="144px" viewBox="0 0 144 144" xml:space="preserve">
<path fill="#F1F2F2" d="M58.637,83.311c-3.654,0-6.625,3.469-6.625,7.73c0,4.26,2.971,7.729,6.625,7.729
	c3.648,0,6.617-3.469,6.617-7.729C65.254,86.779,62.286,83.311,58.637,83.311z M58.637,95.826c-2.029,0-3.681-2.147-3.681-4.785
	c0-2.639,1.652-4.785,3.681-4.785c2.026,0,3.672,2.146,3.672,4.785C62.309,93.679,60.66,95.826,58.637,95.826z"/>
<path fill="#F1F2F2" d="M73.473,83.311c-0.813,0-1.473,0.66-1.473,1.473v12.515c0,0.813,0.66,1.472,1.473,1.472
	c0.813,0,1.473-0.658,1.473-1.472V84.783C74.945,83.971,74.285,83.311,73.473,83.311z"/>
<path fill="#F1F2F2" d="M88.313,83.311c-3.648,0-6.616,3.469-6.616,7.73c0,4.26,2.968,7.729,6.616,7.729
	c3.651,0,6.622-3.469,6.622-7.729C94.936,86.779,91.965,83.311,88.313,83.311z M88.313,95.826c-2.026,0-3.672-2.147-3.672-4.785
	c0-2.639,1.649-4.785,3.672-4.785c2.026,0,3.678,2.146,3.678,4.785C91.991,93.679,90.34,95.826,88.313,95.826z"/>
<path fill="#F1F2F2" d="M103.154,98.77c0.813,0,1.473-0.658,1.473-1.472V84.783c0-0.813-0.66-1.473-1.473-1.473
	s-1.472,0.66-1.472,1.473v12.515C101.683,98.111,102.339,98.77,103.154,98.77z"/>
<path fill="#F1F2F2" d="M112.843,83.311c-0.813,0-1.473,0.66-1.473,1.473v12.515c0,0.813,0.659,1.472,1.473,1.472
	c0.813,0,1.472-0.658,1.472-1.472V84.783C114.314,83.971,113.655,83.311,112.843,83.311z"/>
<path fill="#F1F2F2" d="M122.539,83.311c-0.813,0-1.473,0.66-1.473,1.473v12.515c0,0.813,0.66,1.472,1.473,1.472
	s1.473-0.658,1.473-1.472V84.783C124.012,83.971,123.352,83.311,122.539,83.311z"/>
<path fill="#F1F2F2" d="M137.381,98.77c3.648,0,6.619-3.469,6.619-7.729c0-4.262-2.971-7.73-6.619-7.73
	c-3.652,0-6.626,3.469-6.626,7.73C130.755,95.301,133.729,98.77,137.381,98.77z M137.381,86.256c2.025,0,3.675,2.146,3.675,4.785
	c0,2.638-1.649,4.785-3.675,4.785c-2.029,0-3.682-2.147-3.682-4.785C133.699,88.402,135.349,86.256,137.381,86.256z"/>
<path fill="#F1F2F2" d="M137.381,105.511c-3.652,0-6.626,3.469-6.626,7.729c0,4.258,2.974,7.725,6.626,7.725
	c3.648,0,6.619-3.467,6.619-7.725C144,108.979,141.029,105.511,137.381,105.511z M137.381,118.02c-2.029,0-3.682-2.146-3.682-4.779
	c0-2.639,1.652-4.785,3.682-4.785c2.025,0,3.675,2.146,3.675,4.785C141.056,115.876,139.406,118.02,137.381,118.02z"/>
<path fill="#F1F2F2" d="M122.539,105.511c-0.813,0-1.473,0.659-1.473,1.472v12.51c0,0.813,0.66,1.473,1.473,1.473
	s1.473-0.66,1.473-1.473v-12.51C124.012,106.17,123.352,105.511,122.539,105.511z"/>
<path fill="#F1F2F2" d="M107.695,105.511c-3.648,0-6.619,3.469-6.619,7.729c0,4.258,2.971,7.725,6.619,7.725
	s6.619-3.467,6.619-7.725C114.314,108.979,111.344,105.511,107.695,105.511z M107.695,118.02c-2.025,0-3.675-2.146-3.675-4.779
	c0-2.639,1.649-4.785,3.675-4.785s3.675,2.146,3.675,4.785C111.37,115.876,109.721,118.02,107.695,118.02z"/>
<path fill="#F1F2F2" d="M94.332,119.492v-12.51c0-0.813-0.659-1.472-1.473-1.472c-0.813,0-1.472,0.659-1.472,1.472v12.51
	c0,0.813,0.659,1.473,1.472,1.473C93.673,120.965,94.332,120.308,94.332,119.492z"/>
<path fill="#F1F2F2" d="M83.17,120.965c0.813,0,1.472-0.66,1.472-1.473v-12.51c0-0.813-0.659-1.472-1.472-1.472
	c-0.813,0-1.473,0.659-1.473,1.472v12.51C81.697,120.308,82.354,120.965,83.17,120.965z"/>
<path fill="#F1F2F2" d="M73.473,105.511c-0.813,0-1.473,0.659-1.473,1.472v12.51c0,0.813,0.66,1.473,1.473,1.473
	c0.813,0,1.473-0.66,1.473-1.473v-12.51C74.945,106.17,74.285,105.511,73.473,105.511z"/>
<path fill="#F1F2F2" d="M58.637,105.511c-3.654,0-6.625,3.469-6.625,7.729c0,4.258,2.971,7.725,6.625,7.725
	c3.648,0,6.617-3.467,6.617-7.725C65.254,108.979,62.286,105.511,58.637,105.511z M58.637,118.02c-2.029,0-3.681-2.146-3.681-4.779
	c0-2.639,1.652-4.785,3.681-4.785c2.026,0,3.672,2.146,3.672,4.785C62.309,115.876,60.66,118.02,58.637,118.02z"/>
<path fill="#F1F2F2" d="M58.637,127.717c-3.654,0-6.625,3.465-6.625,7.723c0,4.262,2.971,7.73,6.625,7.73
	c3.648,0,6.617-3.469,6.617-7.73C65.254,131.182,62.286,127.717,58.637,127.717z M58.637,140.225c-2.029,0-3.681-2.146-3.681-4.785
	c0-2.635,1.652-4.778,3.681-4.778c2.026,0,3.672,2.146,3.672,4.778C62.309,138.082,60.66,140.225,58.637,140.225z"/>
<path fill="#F1F2F2" d="M73.473,127.717c-0.813,0-1.473,0.659-1.473,1.472v12.509c0,0.813,0.66,1.473,1.473,1.473
	c0.813,0,1.473-0.66,1.473-1.473v-12.509C74.945,128.376,74.285,127.717,73.473,127.717z"/>
<path fill="#F1F2F2" d="M88.313,127.717c-3.648,0-6.616,3.465-6.616,7.723c0,4.262,2.968,7.73,6.616,7.73
	c3.651,0,6.622-3.469,6.622-7.73C94.936,131.182,91.965,127.717,88.313,127.717z M88.313,140.225c-2.026,0-3.672-2.146-3.672-4.785
	c0-2.635,1.649-4.778,3.672-4.778c2.026,0,3.678,2.146,3.678,4.778C91.991,138.082,90.34,140.225,88.313,140.225z"/>
<path fill="#F1F2F2" d="M103.154,127.717c-0.813,0-1.472,0.659-1.472,1.472v12.509c0,0.813,0.659,1.473,1.472,1.473
	s1.473-0.66,1.473-1.473v-12.509C104.627,128.376,103.967,127.717,103.154,127.717z"/>
<path fill="#F1F2F2" d="M112.843,127.717c-0.813,0-1.473,0.659-1.473,1.472v12.509c0,0.813,0.659,1.473,1.473,1.473
	c0.813,0,1.472-0.66,1.472-1.473v-12.509C114.314,128.376,113.655,127.717,112.843,127.717z"/>
<path fill="#F1F2F2" d="M122.539,127.717c-0.813,0-1.473,0.659-1.473,1.472v12.509c0,0.813,0.66,1.473,1.473,1.473
	s1.473-0.66,1.473-1.473v-12.509C124.012,128.376,123.352,127.717,122.539,127.717z"/>
<path fill="#F1F2F2" d="M137.381,127.717c-3.652,0-6.626,3.465-6.626,7.723c0,4.262,2.974,7.73,6.626,7.73
	c3.648,0,6.619-3.469,6.619-7.73C144,131.182,141.029,127.717,137.381,127.717z M137.381,140.225c-2.029,0-3.682-2.146-3.682-4.785
	c0-2.635,1.652-4.778,3.682-4.778c2.025,0,3.675,2.146,3.675,4.778C141.056,138.082,139.406,140.225,137.381,140.225z"/>
<path fill="#F1F2F2" d="M1.287,3.472c0,0.577,0.077,1.13,0.171,1.77c0.071,0.509,0.147,1.025,0.147,1.534
	c0,0.424,0,0.583-0.719,0.583H0.003v2.777h0.883c0.719,0,0.719,0.233,0.719,0.58c0,0.492-0.074,0.983-0.147,1.473
	c-0.085,0.58-0.171,1.178-0.171,1.755c0,2.285,1.37,3.595,3.755,3.595H6.34v-2.856H5.097c-0.444,0-0.677-0.038-0.677-0.839
	c0-0.427,0.059-0.836,0.13-1.287c0.082-0.518,0.147-1.057,0.147-1.631c0.012-0.904-0.229-1.649-0.689-2.185
	c0.403-0.457,0.704-1.14,0.689-2.159c0-0.583-0.065-1.101-0.15-1.652C4.476,4.503,4.417,4.079,4.417,3.672
	c0-0.786,0.197-0.819,0.677-0.819H6.34V0H5.042C2.691,0,1.287,1.296,1.287,3.472z"/>
<path fill="#F1F2F2" d="M4.735,64.374c0-0.509,0.077-1.022,0.162-1.599c0.08-0.574,0.156-1.127,0.156-1.705
	c0-2.176-1.411-3.475-3.769-3.475H0v2.851h1.222c0.527,0.009,0.698,0.077,0.698,0.822c0,0.312-0.047,0.633-0.088,0.957L1.793,62.53
	c-0.088,0.539-0.171,1.06-0.171,1.646c0,1.019,0.303,1.702,0.701,2.158c-0.456,0.536-0.701,1.278-0.701,2.176
	c0,0.592,0.083,1.131,0.165,1.608l0.047,0.377c0.042,0.318,0.085,0.627,0.085,0.945c0,0.751-0.206,0.83-0.701,0.839H0v2.856h1.299
	c2.347,0,3.749-1.344,3.749-3.596c0-0.577-0.08-1.172-0.165-1.755c-0.074-0.489-0.153-0.98-0.153-1.472c0-0.35,0-0.58,0.725-0.58
	h0.883v-2.774H5.454C4.735,64.954,4.735,64.794,4.735,64.374z"/>
<path fill="#F1F2F2" d="M8.071,22.536h54.653c0.813,0,1.472-0.66,1.472-1.472c0-0.813-0.66-1.472-1.472-1.472H8.071
	c-0.813,0-1.472,0.659-1.472,1.472C6.599,21.876,7.255,22.536,8.071,22.536z"/>
<path fill="#F1F2F2" d="M8.071,30.787H48.29c0.813,0,1.472-0.66,1.472-1.472c0-0.813-0.659-1.473-1.472-1.473H8.071
	c-0.813,0-1.472,0.66-1.472,1.473C6.599,30.127,7.255,30.787,8.071,30.787z"/>
<path fill="#F1F2F2" d="M69.117,27.842H53.446c-0.813,0-1.473,0.66-1.473,1.473c0,0.813,0.66,1.472,1.473,1.472h15.671
	c0.813,0,1.473-0.66,1.473-1.472C70.59,28.501,69.93,27.842,69.117,27.842z"/>
<path fill="#F1F2F2" d="M8.071,39.038h30.934c0.813,0,1.473-0.66,1.473-1.472c0-0.813-0.66-1.473-1.473-1.473H8.071
	c-0.813,0-1.472,0.66-1.472,1.473C6.599,38.378,7.255,39.038,8.071,39.038z"/>
<path fill="#F1F2F2" d="M42.895,37.565c0,0.813,0.66,1.472,1.472,1.472h11.758c0.813,0,1.472-0.66,1.472-1.472
	c0-0.813-0.66-1.473-1.472-1.473H44.367C43.552,36.093,42.895,36.752,42.895,37.565z"/>
<path fill="#F1F2F2" d="M48.29,44.344H8.071c-0.813,0-1.472,0.66-1.472,1.473c0,0.813,0.66,1.472,1.472,1.472H48.29
	c0.813,0,1.472-0.66,1.472-1.472C49.762,45.003,49.103,44.344,48.29,44.344z"/>
<path fill="#F1F2F2" d="M22.121,54.064c0-0.813-0.66-1.472-1.473-1.472H8.071c-0.813,0-1.472,0.66-1.472,1.472
	c0,0.813,0.66,1.473,1.472,1.473h12.577C21.464,55.537,22.121,54.88,22.121,54.064z"/>
<path fill="#F1F2F2" d="M38.348,113.608c0-0.054-0.023-0.101-0.029-0.153c-0.009-0.098-0.026-0.186-0.059-0.279
	c-0.012-0.045-0.008-0.089-0.026-0.13c-0.024-0.056-0.065-0.095-0.095-0.144c-0.026-0.048-0.032-0.102-0.062-0.145l-5.165-7.265
	c-0.471-0.66-1.387-0.813-2.052-0.345c-0.663,0.471-0.819,1.39-0.348,2.053l3.472,4.885c-6.381-0.235-13.03-1.438-17.474-6.277
	c-4.007-4.365-5.642-11.273-4.85-20.531c0.067-0.81-0.53-1.525-1.343-1.593c-0.827-0.067-1.525,0.533-1.593,1.34
	c-0.863,10.115,1.024,17.774,5.612,22.771c5.039,5.49,12.456,6.896,19.103,7.2l-2.78,2.824c-0.568,0.577-0.563,1.511,0.018,2.081
	c0.286,0.283,0.659,0.425,1.033,0.425c0.38,0,0.76-0.147,1.048-0.438l5.153-5.236c0,0,0,0,0.003,0l0.006-0.008
	c0.029-0.033,0.041-0.071,0.068-0.104c0.009-0.015,0.015-0.029,0.026-0.041c0.056-0.071,0.106-0.142,0.147-0.219
	c0.021-0.041,0.053-0.07,0.067-0.111c0.023-0.057,0.021-0.115,0.039-0.171c0.023-0.089,0.044-0.177,0.05-0.271
	c0.003-0.041,0.023-0.074,0.023-0.118C38.352,113.611,38.348,113.608,38.348,113.608z"/>
</svg>
