<?xml version="1.0" encoding="utf-8"?>
<!-- Generator: Adobe Illustrator 16.0.0, SVG Export Plug-In . SVG Version: 6.00 Build 0)  -->
<svg version="1.2" baseProfile="tiny" id="Layer_1" xmlns="http://www.w3.org/2000/svg" xmlns:xlink="http://www.w3.org/1999/xlink"
	 x="0px" y="0px" width="144px" height="144px" viewBox="0 0 144 144" xml:space="preserve">
<g>
	<path fill="#E6E7E8" d="M124.681,39.113c0-10.174-8.287-18.461-18.462-18.461s-18.463,8.287-18.463,18.461
		c0,10.175,8.288,18.462,18.463,18.462S124.681,49.288,124.681,39.113z M106.219,53.473c-7.918,0-14.358-6.441-14.358-14.359
		s6.44-14.359,14.358-14.359c7.917,0,14.358,6.441,14.358,14.359S114.136,53.473,106.219,53.473z"/>
	<path fill="#E6E7E8" d="M66.34,35.114l0.636-1.149c0.103-0.164,9.539-16.657,32.146-24.575c1.065-0.37,1.621-1.538,1.25-2.605
		c-0.37-1.067-1.539-1.621-2.604-1.251c-20.862,7.323-31.037,21.19-33.684,25.313L39.55,28.795L0,85.905l39.242,4.368
		c5.23,9.787,12.821,14.36,15.754,15.838l2.174,37.108l38.998-24.555c0.963-0.595,1.25-1.866,0.634-2.831
		c-0.595-0.965-1.865-1.25-2.83-0.637L60.884,136.04l-1.929-32.698l-1.189-0.492c-0.103-0.042-9.642-4.021-15.344-15.427
		l-0.492-1.005L7.303,82.562l34.298-49.541L66.34,35.114z"/>
	<path fill="#E6E7E8" d="M114.425,106.808c1.127,0,2.052-0.922,2.052-2.051V81.248c14.235-9.641,23.344-25.949,26.401-47.222
		c2.315-16.267,0.348-29.54,0.245-30.093l-0.227-1.497l-1.497-0.226c-7.672-1.128-15.118-1.477-22.154-1.005
		c-1.129,0.083-1.989,1.047-1.907,2.175c0.081,1.128,1.087,2.031,2.173,1.908c6.278-0.41,12.903-0.164,19.735,0.758
		c0.964,8.698,4.227,52.843-25.95,72.372l-0.923,0.616v25.724C112.373,105.886,113.296,106.808,114.425,106.808z"/>
	<path fill="#E6E7E8" d="M109.665,6.559c1.251-0.246,2.523-0.451,3.815-0.636c1.129-0.165,1.907-1.19,1.744-2.318
		c-0.163-1.129-1.189-1.908-2.319-1.744c-1.374,0.185-2.706,0.41-4.021,0.656c-1.106,0.205-1.846,1.293-1.621,2.401
		c0.187,0.984,1.047,1.661,2.012,1.661C109.399,6.579,109.542,6.579,109.665,6.559z"/>
	<path fill="#E6E7E8" d="M107.101,106.951l-4.368,2.75c-0.966,0.595-1.252,1.867-0.637,2.831c0.39,0.615,1.067,0.963,1.742,0.963
		c0.37,0,0.76-0.103,1.089-0.308l4.368-2.749c0.965-0.595,1.252-1.866,0.637-2.831C109.315,106.644,108.045,106.336,107.101,106.951
		z"/>
</g>
</svg>
